<svg width="48" height="48" viewBox="0 0 48 48" fill="none" xmlns="http://www.w3.org/2000/svg">
<rect width="48" height="48" fill="#323238"/>
<path d="M34.075 12H14.05C12.9563 12 12 12.7875 12 13.8687V33.9375C12 35.025 12.9563 35.9937 14.05 35.9937H34.0688C35.1688 35.9937 35.9937 35.0187 35.9937 33.9375V13.8687C36 12.7875 35.1688 12 34.075 12ZM19.4375 32H16V21.3125H19.4375V32ZM17.8375 19.6875H17.8125C16.7125 19.6875 16 18.8687 16 17.8437C16 16.8 16.7312 16 17.8562 16C18.9812 16 19.6688 16.7937 19.6938 17.8437C19.6938 18.8687 18.9812 19.6875 17.8375 19.6875ZM32 32H28.5625V26.1562C28.5625 24.7562 28.0625 23.8 26.8188 23.8C25.8688 23.8 25.3062 24.4437 25.0562 25.0687C24.9625 25.2937 24.9375 25.6 24.9375 25.9125V32H21.5V21.3125H24.9375V22.8C25.4375 22.0875 26.2188 21.0625 28.0375 21.0625C30.2938 21.0625 32 22.55 32 25.7562V32V32Z" fill="white"/>
</svg>
