<svg width="48" height="48" viewBox="0 0 48 48" fill="none" xmlns="http://www.w3.org/2000/svg">
<rect width="48" height="48" fill="#323238"/>
<path d="M24.075 12C17.4066 12 12 17.373 12 24C12 26.2512 12.6363 28.3501 13.7216 30.1504L12.1081 36L18.12 34.4316C19.8783 35.4251 21.908 36 24.075 36C30.7434 36 36.15 30.627 36.15 24C36.15 17.373 30.7434 12 24.075 12ZM19.9419 18.4023C20.1381 18.4023 20.3397 18.4012 20.5138 18.4102C20.7292 18.4152 20.9635 18.4308 21.1879 18.9238C21.4546 19.5098 22.0352 20.9799 22.1097 21.1289C22.1841 21.2779 22.2369 21.4534 22.1333 21.6484C22.0346 21.8484 21.9834 21.9695 21.8385 22.1465C21.6885 22.3185 21.5242 22.5321 21.3884 22.6621C21.2385 22.8111 21.0836 22.9745 21.2567 23.2715C21.4298 23.5685 22.0309 24.5421 22.9194 25.3281C24.0615 26.3421 25.0251 26.6537 25.325 26.8027C25.6248 26.9517 25.7985 26.9285 25.9715 26.7285C26.1497 26.5335 26.7196 25.8644 26.9208 25.5664C27.117 25.2684 27.3173 25.32 27.589 25.418C27.8647 25.516 29.3351 26.2358 29.6349 26.3848C29.9348 26.5338 30.1314 26.6075 30.2068 26.7285C30.2843 26.8535 30.2844 27.4486 30.0359 28.1426C29.7873 28.8356 28.5668 29.5057 28.0194 29.5527C27.467 29.6037 26.9514 29.7995 24.4288 28.8125C21.3859 27.6215 19.4669 24.5242 19.3169 24.3242C19.167 24.1292 18.0984 22.7139 18.0984 21.2539C18.0984 19.7889 18.8713 19.0714 19.142 18.7734C19.4177 18.4754 19.7407 18.4023 19.9419 18.4023Z" fill="white"/>
</svg>
